<svg viewBox="0 0 1440 320" preserveAspectRatio="none" xmlns="http://www.w3.org/2000/svg">
    <defs>
        <linearGradient id="oceanGradient" gradientTransform="rotate(45)">
            <stop offset="0%" stop-color="#87CEFA" />
            <stop offset="100%" stop-color="#1E3A5F" />
        </linearGradient>
    </defs>
    <!-- First Layer -->
    <path d="M0,224L48,213.3C96,203,192,181,288,192C384,203,480,245,576,245.3C672,245,768,203,864,192C960,181,1056,203,1152,213.3C1248,224,1344,224,1392,224L1440,224L1440,320L1392,320C1344,320,1248,320,1152,320C1056,320,960,320,864,320C768,320,672,320,576,320C480,320,384,320,288,320C192,320,96,320,48,320L0,320Z" fill="url(#oceanGradient)" />
    <!-- Second Layer -->
    <path d="M0,288L48,272C96,256,192,224,288,213.3C384,203,480,213,576,202.7C672,192,768,160,864,154.7C960,149,1056,171,1152,181.3C1248,192,1344,192,1392,192L1440,192L1440,320L1392,320C1344,320,1248,320,1152,320C1056,320,960,320,864,320C768,320,672,320,576,320C480,320,384,320,288,320C192,320,96,320,48,320L0,320Z" fill="url(#oceanGradient)" opacity="0.7" />
    <!-- Third Layer -->
    <path d="M0,256L48,245.3C96,235,192,213,288,202.7C384,192,480,192,576,213.3C672,235,768,277,864,277.3C960,277,1056,235,1152,213.3C1248,192,1344,192,1392,192L1440,192L1440,320L1392,320C1344,320,1248,320,1152,320C1056,320,960,320,864,320C768,320,672,320,576,320C480,320,384,320,288,320C192,320,96,320,48,320L0,320Z" fill="url(#oceanGradient)" opacity="0.5" />
</svg>
